<?xml version="1.0" encoding="UTF-8" standalone="no"?>
<!-- Created with Inkscape (http://www.inkscape.org/) -->

<svg
   xmlns:dc="http://purl.org/dc/elements/1.1/"
   xmlns:cc="http://creativecommons.org/ns#"
   xmlns:rdf="http://www.w3.org/1999/02/22-rdf-syntax-ns#"
   xmlns:svg="http://www.w3.org/2000/svg"
   xmlns="http://www.w3.org/2000/svg"
   xmlns:sodipodi="http://sodipodi.sourceforge.net/DTD/sodipodi-0.dtd"
   xmlns:inkscape="http://www.inkscape.org/namespaces/inkscape"
   width="297.21701mm"
   height="180mm"
   viewBox="0 0 297.21701 180"
   version="1.1"
   id="svg8"
   inkscape:version="0.92.2 2405546, 2018-03-11"
   sodipodi:docname="404_error.svg">
  <defs
     id="defs2">
    <linearGradient
       id="linearGradient6355">
      <stop
         style="stop-color:#ffffff;stop-opacity:0"
         offset="0"
         id="stop6351" />
      <stop
         style="stop-color:#6c757d;stop-opacity:1"
         offset="1"
         id="stop6353" />
    </linearGradient>
    <linearGradient
       x1="0"
       y1="0"
       x2="1"
       y2="0"
       gradientUnits="userSpaceOnUse"
       gradientTransform="matrix(6.6898999,0,0,-6.6898999,176.939,18.124)"
       spreadMethod="pad"
       id="linearGradient6333">
      <stop
         style="stop-opacity:1;stop-color:#ffffff"
         offset="0"
         id="stop6329" />
      <stop
         style="stop-opacity:1;stop-color:#bfbfbf"
         offset="1"
         id="stop6331" />
    </linearGradient>
    <clipPath
       id="clipPath922"
       clipPathUnits="userSpaceOnUse">
      <path
         inkscape:connector-curvature="0"
         id="path920"
         d="M 0,500 H 500 V 0 H 0 Z" />
    </clipPath>
    <clipPath
       id="clipPath982"
       clipPathUnits="userSpaceOnUse">
      <path
         inkscape:connector-curvature="0"
         id="path980"
         d="M 207.387,304.609 H 390.543 V 121.893 H 207.387 Z" />
    </clipPath>
    <clipPath
       id="clipPath1010"
       clipPathUnits="userSpaceOnUse">
      <path
         inkscape:connector-curvature="0"
         id="path1008"
         d="m 298.985,201.015 h 12.577 v -15.147 h -12.577 z" />
    </clipPath>
    <clipPath
       id="clipPath1030"
       clipPathUnits="userSpaceOnUse">
      <path
         inkscape:connector-curvature="0"
         id="path1028"
         d="M 198.338,301.662 H 301.662 V 198.338 H 198.338 Z" />
    </clipPath>
    <clipPath
       id="clipPath1054"
       clipPathUnits="userSpaceOnUse">
      <path
         inkscape:connector-curvature="0"
         id="path1052"
         d="M 0,500 H 500 V 0 H 0 Z" />
    </clipPath>
    <clipPath
       id="clipPath1070"
       clipPathUnits="userSpaceOnUse">
      <path
         inkscape:connector-curvature="0"
         id="path1068"
         d="m 174.64,24.035 c -0.141,-0.191 -0.211,-0.46 -0.211,-0.821 v 0 -2.599 c -0.33,0.359 -0.671,0.63 -1.02,0.809 v 0 c -0.35,0.17 -0.77,0.26 -1.28,0.26 v 0 c -0.87,0 -1.58,-0.31 -2.12,-0.92 v 0 c -0.53,-0.62 -0.8,-1.47 -0.8,-2.571 v 0 c 0,-0.519 0.07,-0.999 0.2,-1.448 v 0 c 0.14,-0.451 0.33,-0.842 0.6,-1.171 v 0 c 0.26,-0.33 0.57,-0.58 0.93,-0.761 v 0 c 0.35,-0.179 0.74,-0.269 1.16,-0.269 v 0 c 0.32,0 0.62,0.05 0.88,0.14 v 0 c 0.27,0.08 0.52,0.209 0.75,0.379 v 0 c 0.23,0.17 0.46,0.391 0.7,0.661 v 0 -0.17 c 0,-0.321 0.08,-0.571 0.23,-0.75 v 0 c 0.16,-0.17 0.36,-0.26 0.6,-0.26 v 0 c 0.24,0 0.44,0.09 0.6,0.25 v 0 c 0.149,0.17 0.23,0.42 0.23,0.76 v 0 7.75 c 0,0.33 -0.07,0.58 -0.22,0.749 v 0 c -0.14,0.17 -0.339,0.251 -0.61,0.251 v 0 c -0.269,0 -0.47,-0.09 -0.619,-0.269 m -2.841,-7.871 c -0.26,0.17 -0.46,0.42 -0.61,0.75 v 0 c -0.14,0.34 -0.22,0.74 -0.22,1.22 v 0 c 0,0.45 0.07,0.85 0.21,1.19 v 0 c 0.14,0.34 0.34,0.6 0.59,0.779 v 0 c 0.25,0.181 0.54,0.281 0.86,0.281 v 0 c 0.31,0 0.6,-0.09 0.86,-0.27 v 0 c 0.26,-0.181 0.46,-0.44 0.61,-0.77 v 0 c 0.16,-0.341 0.23,-0.74 0.23,-1.21 v 0 c 0,-0.5 -0.07,-0.911 -0.23,-1.25 v 0 c -0.15,-0.33 -0.35,-0.581 -0.61,-0.741 v 0 c -0.25,-0.16 -0.54,-0.24 -0.84,-0.24 v 0 c -0.31,0 -0.59,0.091 -0.85,0.261" />
    </clipPath>
    <linearGradient
       id="linearGradient1080"
       spreadMethod="pad"
       gradientTransform="matrix(6.8799,0,0,-6.8799,169.209,19.423799)"
       gradientUnits="userSpaceOnUse"
       y2="0"
       x2="1"
       y1="0"
       x1="0">
      <stop
         id="stop1076"
         offset="0"
         style="stop-opacity:1;stop-color:#fafafa" />
      <stop
         id="stop1078"
         offset="1"
         style="stop-opacity:1;stop-color:#eeeeee" />
    </linearGradient>
    <clipPath
       id="clipPath1090"
       clipPathUnits="userSpaceOnUse">
      <path
         inkscape:connector-curvature="0"
         id="path1088"
         d="m 178.949,21.454 c -0.44,-0.17 -0.8,-0.42 -1.1,-0.731 v 0 c -0.29,-0.32 -0.52,-0.7 -0.67,-1.149 v 0 c -0.16,-0.44 -0.24,-0.921 -0.24,-1.44 v 0 c 0,-1.1 0.32,-1.981 0.94,-2.621 v 0 c 0.63,-0.639 1.51,-0.969 2.64,-0.969 v 0 c 0.49,0 0.93,0.07 1.31,0.2 v 0 c 0.38,0.13 0.69,0.291 0.94,0.479 v 0 c 0.25,0.201 0.44,0.401 0.57,0.611 v 0 c 0.12,0.219 0.18,0.399 0.18,0.559 v 0 c 0,0.181 -0.05,0.321 -0.16,0.421 v 0 c -0.12,0.1 -0.26,0.15 -0.44,0.15 v 0 c -0.17,0 -0.3,-0.04 -0.39,-0.12 v 0 c -0.22,-0.2 -0.401,-0.37 -0.53,-0.49 v 0 c -0.141,-0.121 -0.29,-0.23 -0.45,-0.34 v 0 c -0.17,-0.1 -0.33,-0.18 -0.51,-0.23 v 0 c -0.17,-0.05 -0.359,-0.07 -0.57,-0.07 v 0 c -0.321,0 -0.6,0.08 -0.861,0.229 v 0 c -0.259,0.151 -0.468,0.381 -0.629,0.691 v 0 c -0.16,0.3 -0.24,0.66 -0.24,1.049 v 0 h 3.44 c 0.46,0 0.81,0.071 1.07,0.201 v 0 c 0.25,0.13 0.38,0.419 0.38,0.86 v 0 c 0,0.48 -0.13,0.94 -0.37,1.4 v 0 c -0.24,0.46 -0.61,0.84 -1.11,1.129 v 0 c -0.489,0.29 -1.08,0.431 -1.76,0.431 v 0 c -0.53,0 -1.01,-0.08 -1.44,-0.25 m 0.3,-1.42 c 0.28,0.3 0.64,0.449 1.08,0.449 v 0 c 0.46,0 0.83,-0.149 1.11,-0.449 v 0 c 0.28,-0.301 0.44,-0.75 0.491,-1.35 v 0 h -3.191 c 0.059,0.589 0.23,1.039 0.51,1.35" />
    </clipPath>
    <linearGradient
       id="linearGradient1100"
       spreadMethod="pad"
       gradientTransform="matrix(6.6898999,0,0,-6.6898999,176.939,18.124)"
       gradientUnits="userSpaceOnUse"
       y2="0"
       x2="1"
       y1="0"
       x1="0">
      <stop
         id="stop1096"
         offset="0"
         style="stop-opacity:1;stop-color:#fafafa" />
      <stop
         id="stop1098"
         offset="1"
         style="stop-opacity:1;stop-color:#eeeeee" />
    </linearGradient>
    <clipPath
       id="clipPath1110"
       clipPathUnits="userSpaceOnUse">
      <path
         inkscape:connector-curvature="0"
         id="path1108"
         d="m 185.479,21.414 c -0.41,-0.19 -0.72,-0.44 -0.93,-0.75 v 0 c -0.21,-0.31 -0.31,-0.651 -0.31,-1 v 0 c 0,-0.391 0.11,-0.731 0.34,-1 v 0 c 0.23,-0.271 0.53,-0.49 0.91,-0.65 v 0 c 0.38,-0.161 0.869,-0.321 1.481,-0.47 v 0 c 0.529,-0.13 0.919,-0.27 1.149,-0.41 v 0 c 0.24,-0.14 0.35,-0.371 0.35,-0.67 v 0 c 0,-0.21 -0.11,-0.38 -0.329,-0.54 v 0 c -0.231,-0.16 -0.521,-0.241 -0.871,-0.241 v 0 c -0.43,0 -0.78,0.081 -1.029,0.231 v 0 c -0.25,0.16 -0.461,0.389 -0.651,0.71 v 0 c -0.08,0.16 -0.18,0.29 -0.28,0.38 v 0 c -0.1,0.09 -0.24,0.13 -0.42,0.13 v 0 c -0.21,0 -0.39,-0.071 -0.52,-0.2 v 0 c -0.14,-0.14 -0.21,-0.31 -0.21,-0.5 v 0 c 0,-0.291 0.11,-0.58 0.32,-0.87 v 0 c 0.22,-0.291 0.55,-0.529 1,-0.73 v 0 c 0.45,-0.19 0.99,-0.29 1.62,-0.29 v 0 c 0.66,0 1.22,0.09 1.68,0.269 v 0 c 0.47,0.181 0.82,0.441 1.05,0.79 v 0 c 0.24,0.34 0.35,0.762 0.35,1.241 v 0 c 0,0.32 -0.08,0.61 -0.26,0.86 v 0 c -0.18,0.25 -0.44,0.47 -0.79,0.65 v 0 c -0.34,0.19 -0.79,0.35 -1.331,0.48 v 0 c -0.459,0.109 -0.819,0.21 -1.079,0.28 v 0 c -0.27,0.079 -0.47,0.18 -0.63,0.3 v 0 c -0.15,0.11 -0.23,0.27 -0.23,0.45 v 0 c 0,0.2 0.1,0.37 0.31,0.51 v 0 c 0.22,0.13 0.48,0.2 0.801,0.2 v 0 c 0.309,0 0.549,-0.05 0.729,-0.16 v 0 c 0.18,-0.1 0.34,-0.24 0.47,-0.41 v 0 c 0.16,-0.2 0.31,-0.361 0.431,-0.46 v 0 c 0.129,-0.1 0.278,-0.16 0.459,-0.16 v 0 c 0.25,0 0.449,0.07 0.58,0.2 v 0 c 0.14,0.13 0.2,0.29 0.2,0.49 v 0 c 0,0.19 -0.06,0.38 -0.19,0.569 v 0 c -0.12,0.191 -0.31,0.371 -0.55,0.53 v 0 c -0.24,0.161 -0.54,0.281 -0.91,0.381 v 0 c -0.36,0.089 -0.77,0.14 -1.219,0.14 v 0 c -0.581,0 -1.08,-0.09 -1.491,-0.28" />
    </clipPath>
    <linearGradient
       id="linearGradient1120"
       spreadMethod="pad"
       gradientTransform="matrix(6.02,0,0,-6.02,184.15919,18.11865)"
       gradientUnits="userSpaceOnUse"
       y2="0"
       x2="1"
       y1="0"
       x1="0">
      <stop
         id="stop1116"
         offset="0"
         style="stop-opacity:1;stop-color:#fafafa" />
      <stop
         id="stop1118"
         offset="1"
         style="stop-opacity:1;stop-color:#eeeeee" />
    </linearGradient>
    <clipPath
       id="clipPath1130"
       clipPathUnits="userSpaceOnUse">
      <path
         inkscape:connector-curvature="0"
         id="path1128"
         d="m 191.359,23.983 c -0.18,-0.159 -0.27,-0.359 -0.27,-0.609 v 0 c 0,-0.28 0.09,-0.491 0.26,-0.641 v 0 c 0.18,-0.149 0.391,-0.219 0.63,-0.219 v 0 c 0.24,0 0.44,0.07 0.61,0.219 v 0 c 0.169,0.16 0.26,0.371 0.26,0.641 v 0 c 0,0.279 -0.091,0.49 -0.27,0.64 v 0 c -0.17,0.139 -0.37,0.219 -0.6,0.219 v 0 c -0.239,0 -0.44,-0.08 -0.62,-0.25 m -0.03,-2.559 c -0.16,-0.171 -0.24,-0.43 -0.24,-0.781 v 0 -5.029 c 0,-0.341 0.08,-0.6 0.24,-0.79 v 0 c 0.16,-0.18 0.37,-0.28 0.63,-0.28 v 0 c 0.26,0 0.47,0.09 0.64,0.269 v 0 c 0.17,0.181 0.25,0.451 0.25,0.801 v 0 5.08 c 0,0.31 -0.08,0.559 -0.25,0.73 v 0 c -0.17,0.18 -0.38,0.27 -0.64,0.27 v 0 c -0.26,0 -0.47,-0.09 -0.63,-0.27" />
    </clipPath>
    <linearGradient
       id="linearGradient1140"
       spreadMethod="pad"
       gradientTransform="matrix(1.7602,0,0,-1.7602,191.0889,19.388651)"
       gradientUnits="userSpaceOnUse"
       y2="0"
       x2="1"
       y1="0"
       x1="0">
      <stop
         id="stop1136"
         offset="0"
         style="stop-opacity:1;stop-color:#fafafa" />
      <stop
         id="stop1138"
         offset="1"
         style="stop-opacity:1;stop-color:#eeeeee" />
    </linearGradient>
    <clipPath
       id="clipPath1150"
       clipPathUnits="userSpaceOnUse">
      <path
         inkscape:connector-curvature="0"
         id="path1148"
         d="m 199.119,21.443 c -0.15,-0.17 -0.22,-0.409 -0.22,-0.71 v 0 -0.239 c -0.31,0.409 -0.65,0.71 -1.021,0.9 v 0 c -0.359,0.19 -0.789,0.29 -1.289,0.29 v 0 c -0.42,0 -0.8,-0.08 -1.15,-0.23 v 0 c -0.35,-0.14 -0.65,-0.361 -0.92,-0.66 v 0 c -0.26,-0.29 -0.47,-0.65 -0.609,-1.071 v 0 c -0.151,-0.429 -0.221,-0.899 -0.221,-1.429 v 0 c 0,-0.71 0.12,-1.33 0.36,-1.87 v 0 c 0.23,-0.54 0.57,-0.96 1.01,-1.26 v 0 c 0.44,-0.31 0.95,-0.46 1.54,-0.46 v 0 c 0.49,0 0.91,0.1 1.27,0.3 v 0 c 0.351,0.2 0.66,0.49 0.93,0.86 v 0 c -0.01,-0.57 -0.02,-0.99 -0.04,-1.25 v 0 c -0.01,-0.261 -0.07,-0.499 -0.17,-0.731 v 0 c -0.099,-0.23 -0.28,-0.399 -0.53,-0.53 v 0 c -0.25,-0.129 -0.6,-0.189 -1.06,-0.189 v 0 c -0.219,0 -0.42,0.019 -0.59,0.06 v 0 c -0.169,0.039 -0.32,0.1 -0.439,0.191 v 0 c -0.121,0.079 -0.241,0.179 -0.342,0.299 v 0 c -0.099,0.12 -0.198,0.24 -0.289,0.349 v 0 c -0.19,0.231 -0.42,0.341 -0.68,0.341 v 0 c -0.2,0 -0.38,-0.07 -0.52,-0.2 v 0 c -0.149,-0.141 -0.22,-0.311 -0.22,-0.53 v 0 c 0,-0.28 0.13,-0.55 0.38,-0.82 v 0 c 0.26,-0.27 0.63,-0.49 1.1,-0.661 v 0 c 0.48,-0.17 1.02,-0.25 1.63,-0.25 v 0 c 0.66,0 1.21,0.061 1.651,0.201 v 0 c 0.449,0.129 0.81,0.33 1.079,0.61 v 0 c 0.28,0.269 0.48,0.62 0.6,1.04 v 0 c 0.12,0.42 0.19,0.92 0.19,1.51 v 0 5.099 c 0,0.421 -0.06,0.741 -0.17,0.961 v 0 c -0.11,0.22 -0.34,0.33 -0.68,0.33 v 0 c -0.23,0 -0.43,-0.09 -0.58,-0.251 m -3.2,-4.879 c -0.31,0.36 -0.46,0.9 -0.46,1.61 v 0 c 0,0.71 0.15,1.25 0.45,1.63 v 0 c 0.3,0.379 0.7,0.58 1.21,0.58 v 0 c 0.51,0 0.93,-0.201 1.24,-0.6 v 0 c 0.321,-0.4 0.48,-0.96 0.48,-1.68 v 0 c 0,-0.45 -0.09,-0.83 -0.25,-1.15 v 0 c -0.16,-0.31 -0.369,-0.551 -0.63,-0.7 v 0 c -0.26,-0.16 -0.54,-0.24 -0.83,-0.24 v 0 c -0.49,0 -0.9,0.18 -1.21,0.55" />
    </clipPath>
    <linearGradient
       id="linearGradient1160"
       spreadMethod="pad"
       gradientTransform="matrix(6.8597999,0,0,-6.8597999,193.689,16.818399)"
       gradientUnits="userSpaceOnUse"
       y2="0"
       x2="1"
       y1="0"
       x1="0">
      <stop
         id="stop1156"
         offset="0"
         style="stop-opacity:1;stop-color:#fafafa" />
      <stop
         id="stop1158"
         offset="1"
         style="stop-opacity:1;stop-color:#eeeeee" />
    </linearGradient>
    <clipPath
       id="clipPath1170"
       clipPathUnits="userSpaceOnUse">
      <path
         inkscape:connector-curvature="0"
         id="path1168"
         d="m 204.35,21.403 c -0.101,-0.05 -0.19,-0.109 -0.291,-0.179 v 0 c -0.25,-0.18 -0.49,-0.421 -0.72,-0.72 v 0 0.219 c 0,0.211 -0.04,0.391 -0.11,0.53 v 0 c -0.08,0.15 -0.18,0.261 -0.3,0.331 v 0 c -0.13,0.069 -0.27,0.11 -0.42,0.11 v 0 c -0.25,0 -0.45,-0.08 -0.599,-0.251 v 0 c -0.152,-0.159 -0.221,-0.409 -0.221,-0.749 v 0 -5.08 c 0,-0.341 0.08,-0.6 0.25,-0.79 v 0 c 0.161,-0.18 0.37,-0.28 0.62,-0.28 v 0 c 0.26,0 0.48,0.09 0.64,0.269 v 0 c 0.17,0.181 0.25,0.451 0.25,0.801 v 0 2.2 c 0,0.721 0.04,1.209 0.13,1.47 v 0 c 0.12,0.331 0.311,0.58 0.56,0.77 v 0 c 0.26,0.19 0.55,0.28 0.86,0.28 v 0 c 0.48,0 0.799,-0.151 0.96,-0.46 v 0 c 0.16,-0.311 0.24,-0.75 0.24,-1.33 v 0 -2.93 c 0,-0.341 0.09,-0.6 0.25,-0.79 v 0 c 0.159,-0.18 0.37,-0.28 0.64,-0.28 v 0 c 0.25,0 0.46,0.09 0.62,0.269 v 0 c 0.17,0.181 0.25,0.451 0.25,0.801 v 0 3.27 c 0,0.389 -0.02,0.71 -0.06,0.96 v 0 c -0.03,0.24 -0.11,0.48 -0.219,0.69 v 0 c -0.181,0.369 -0.451,0.649 -0.821,0.86 v 0 c -0.36,0.2 -0.78,0.3 -1.24,0.3 v 0 c -0.48,0 -0.9,-0.1 -1.269,-0.291" />
    </clipPath>
    <linearGradient
       id="linearGradient1180"
       spreadMethod="pad"
       gradientTransform="matrix(6.27,0,0,-6.27,201.689,18.11865)"
       gradientUnits="userSpaceOnUse"
       y2="0"
       x2="1"
       y1="0"
       x1="0">
      <stop
         id="stop1176"
         offset="0"
         style="stop-opacity:1;stop-color:#fafafa" />
      <stop
         id="stop1178"
         offset="1"
         style="stop-opacity:1;stop-color:#eeeeee" />
    </linearGradient>
    <clipPath
       id="clipPath1190"
       clipPathUnits="userSpaceOnUse">
      <path
         inkscape:connector-curvature="0"
         id="path1188"
         d="m 210.799,21.454 c -0.43,-0.17 -0.8,-0.42 -1.09,-0.731 v 0 c -0.3,-0.32 -0.53,-0.7 -0.68,-1.149 v 0 c -0.15,-0.44 -0.23,-0.921 -0.23,-1.44 v 0 c 0,-1.1 0.31,-1.981 0.941,-2.621 v 0 c 0.619,-0.639 1.499,-0.969 2.629,-0.969 v 0 c 0.49,0 0.93,0.07 1.31,0.2 v 0 c 0.01,0 0.03,0.01 0.04,0.01 v 0 c 0.36,0.13 0.66,0.29 0.91,0.469 v 0 c 0.25,0.201 0.43,0.401 0.56,0.611 v 0 c 0.12,0.219 0.19,0.399 0.19,0.559 v 0 c 0,0.181 -0.06,0.321 -0.17,0.421 v 0 c -0.11,0.1 -0.26,0.15 -0.44,0.15 v 0 c -0.17,0 -0.29,-0.04 -0.38,-0.12 v 0 c -0.22,-0.2 -0.4,-0.37 -0.54,-0.49 v 0 c -0.14,-0.121 -0.29,-0.23 -0.45,-0.34 v 0 c -0.159,-0.1 -0.33,-0.18 -0.5,-0.23 v 0 c -0.17,-0.05 -0.351,-0.07 -0.55,-0.07 v 0 h -0.01 -0.02 c -0.311,0 -0.599,0.08 -0.86,0.229 v 0 c -0.26,0.151 -0.469,0.381 -0.62,0.691 v 0 c -0.03,0.059 -0.06,0.111 -0.081,0.17 v 0 0.01 c -0.109,0.26 -0.159,0.56 -0.169,0.869 v 0 h 3.44 c 0.46,0 0.82,0.071 1.07,0.201 v 0 c 0.25,0.13 0.38,0.419 0.38,0.86 v 0 c 0,0.48 -0.12,0.94 -0.37,1.4 v 0 c -0.24,0.46 -0.61,0.84 -1.1,1.129 v 0 c -0.49,0.29 -1.08,0.431 -1.77,0.431 v 0 c -0.53,0 -1.01,-0.08 -1.44,-0.25 m 0.309,-1.42 c 0.281,0.3 0.641,0.449 1.072,0.449 v 0 c 0.459,0 0.828,-0.149 1.109,-0.449 v 0 c 0.29,-0.301 0.45,-0.75 0.491,-1.35 v 0 h -3.191 c 0.06,0.589 0.23,1.039 0.519,1.35" />
    </clipPath>
    <linearGradient
       id="linearGradient1200"
       spreadMethod="pad"
       gradientTransform="matrix(6.6802001,0,0,-6.6802001,208.7988,18.124)"
       gradientUnits="userSpaceOnUse"
       y2="0"
       x2="1"
       y1="0"
       x1="0">
      <stop
         id="stop1196"
         offset="0"
         style="stop-opacity:1;stop-color:#fafafa" />
      <stop
         id="stop1198"
         offset="1"
         style="stop-opacity:1;stop-color:#eeeeee" />
    </linearGradient>
    <clipPath
       id="clipPath1210"
       clipPathUnits="userSpaceOnUse">
      <path
         inkscape:connector-curvature="0"
         id="path1208"
         d="m 221.409,24.035 c -0.14,-0.191 -0.22,-0.46 -0.22,-0.821 v 0 -2.599 c -0.33,0.359 -0.659,0.63 -1.009,0.809 v 0 c -0.351,0.17 -0.781,0.26 -1.281,0.26 v 0 c -0.88,0 -1.581,-0.31 -2.12,-0.92 v 0 c -0.54,-0.62 -0.81,-1.47 -0.81,-2.571 v 0 c 0,-0.519 0.07,-0.999 0.21,-1.448 v 0 c 0.13,-0.451 0.329,-0.842 0.59,-1.171 v 0 c 0.261,-0.33 0.57,-0.58 0.93,-0.761 v 0 c 0.36,-0.179 0.75,-0.269 1.17,-0.269 v 0 c 0.32,0 0.61,0.05 0.88,0.14 v 0 c 0.27,0.08 0.52,0.209 0.75,0.379 v 0 c 0.23,0.17 0.46,0.391 0.69,0.661 v 0 -0.17 c 0,-0.321 0.08,-0.571 0.24,-0.75 v 0 c 0.16,-0.17 0.35,-0.26 0.6,-0.26 v 0 c 0.24,0 0.44,0.09 0.59,0.25 v 0 c 0.161,0.17 0.24,0.42 0.24,0.76 v 0 7.75 c 0,0.33 -0.079,0.58 -0.22,0.749 v 0 c -0.14,0.17 -0.35,0.251 -0.61,0.251 v 0 c -0.27,0 -0.481,-0.09 -0.62,-0.269 m -2.84,-7.871 c -0.26,0.17 -0.46,0.42 -0.61,0.75 v 0 c -0.15,0.34 -0.219,0.74 -0.219,1.22 v 0 c 0,0.45 0.069,0.85 0.209,1.19 v 0 c 0.14,0.34 0.331,0.6 0.59,0.779 v 0 c 0.25,0.181 0.54,0.281 0.86,0.281 v 0 c 0.31,0 0.591,-0.09 0.85,-0.27 v 0 c 0.26,-0.181 0.471,-0.44 0.62,-0.77 v 0 c 0.15,-0.341 0.23,-0.74 0.23,-1.21 v 0 c 0,-0.5 -0.08,-0.911 -0.23,-1.25 v 0 c -0.149,-0.33 -0.36,-0.581 -0.61,-0.741 v 0 c -0.26,-0.16 -0.54,-0.24 -0.85,-0.24 v 0 c -0.3,0 -0.58,0.091 -0.84,0.261" />
    </clipPath>
    <linearGradient
       id="linearGradient1220"
       spreadMethod="pad"
       gradientTransform="matrix(6.8896999,0,0,-6.8896999,215.96919,19.423799)"
       gradientUnits="userSpaceOnUse"
       y2="0"
       x2="1"
       y1="0"
       x1="0">
      <stop
         id="stop1216"
         offset="0"
         style="stop-opacity:1;stop-color:#fafafa" />
      <stop
         id="stop1218"
         offset="1"
         style="stop-opacity:1;stop-color:#eeeeee" />
    </linearGradient>
    <clipPath
       id="clipPath1230"
       clipPathUnits="userSpaceOnUse">
      <path
         inkscape:connector-curvature="0"
         id="path1228"
         d="m 226.93,24.035 c -0.141,-0.181 -0.211,-0.451 -0.211,-0.811 v 0 -7.67 c 0,-0.331 0.07,-0.581 0.22,-0.75 v 0 c 0.15,-0.17 0.341,-0.26 0.59,-0.26 v 0 c 0.25,0 0.45,0.09 0.61,0.26 v 0 c 0.159,0.169 0.24,0.419 0.24,0.75 v 0 0.17 c 0.189,-0.22 0.35,-0.39 0.46,-0.501 v 0 c 0.12,-0.108 0.261,-0.219 0.43,-0.33 v 0 c 0.17,-0.099 0.37,-0.189 0.61,-0.249 v 0 c 0.24,-0.06 0.49,-0.1 0.76,-0.1 v 0 c 0.44,0 0.85,0.09 1.22,0.269 v 0 c 0.36,0.181 0.68,0.431 0.931,0.761 v 0 c 0.259,0.32 0.459,0.711 0.589,1.15 v 0 c 0.14,0.45 0.2,0.93 0.2,1.469 v 0 c 0,0.721 -0.12,1.342 -0.36,1.871 v 0 c -0.24,0.52 -0.58,0.92 -1.02,1.199 v 0 c -0.44,0.281 -0.95,0.421 -1.54,0.421 v 0 c -0.5,0 -0.93,-0.1 -1.27,-0.281 v 0 c -0.35,-0.179 -0.68,-0.439 -1.01,-0.788 v 0 2.689 c 0,0.32 -0.081,0.57 -0.22,0.74 v 0 c -0.15,0.179 -0.36,0.26 -0.63,0.26 v 0 c -0.249,0 -0.45,-0.09 -0.599,-0.269 m 2.009,-7.561 c -0.32,0.37 -0.48,0.909 -0.48,1.61 v 0 c 0,0.469 0.08,0.89 0.23,1.229 v 0 c 0.15,0.351 0.35,0.611 0.609,0.79 v 0 c 0.27,0.181 0.561,0.281 0.901,0.281 v 0 c 0.32,0 0.61,-0.1 0.85,-0.281 v 0 c 0.25,-0.179 0.44,-0.439 0.57,-0.769 v 0 c 0.13,-0.339 0.199,-0.74 0.199,-1.2 v 0 c 0,-0.72 -0.159,-1.27 -0.479,-1.65 v 0 c -0.32,-0.39 -0.7,-0.581 -1.14,-0.581 v 0 c -0.52,0 -0.94,0.191 -1.26,0.571" />
    </clipPath>
    <linearGradient
       id="linearGradient1240"
       spreadMethod="pad"
       gradientTransform="matrix(6.8599,0,0,-6.8599,226.71919,19.423799)"
       gradientUnits="userSpaceOnUse"
       y2="0"
       x2="1"
       y1="0"
       x1="0">
      <stop
         id="stop1236"
         offset="0"
         style="stop-opacity:1;stop-color:#fafafa" />
      <stop
         id="stop1238"
         offset="1"
         style="stop-opacity:1;stop-color:#eeeeee" />
    </linearGradient>
    <clipPath
       id="clipPath1250"
       clipPathUnits="userSpaceOnUse">
      <path
         inkscape:connector-curvature="0"
         id="path1248"
         d="m 238.919,21.594 c -0.1,-0.06 -0.199,-0.191 -0.29,-0.37 v 0 c -0.09,-0.19 -0.19,-0.439 -0.3,-0.77 v 0 l -1.41,-4.02 -1.49,4.33 c -0.1,0.3 -0.21,0.53 -0.34,0.69 v 0 c -0.13,0.16 -0.32,0.24 -0.57,0.24 v 0 c -0.15,0 -0.29,-0.041 -0.42,-0.12 v 0 c -0.14,-0.07 -0.25,-0.18 -0.32,-0.311 v 0 c -0.08,-0.119 -0.12,-0.259 -0.12,-0.409 v 0 c 0,-0.15 0.07,-0.371 0.2,-0.689 v 0 l 2.16,-5.441 -0.16,-0.4 c -0.119,-0.28 -0.22,-0.5 -0.32,-0.65 v 0 c -0.09,-0.151 -0.19,-0.25 -0.31,-0.31 v 0 c -0.11,-0.06 -0.27,-0.091 -0.47,-0.091 v 0 c -0.09,0 -0.18,0.011 -0.29,0.041 v 0 c -0.09,0.02 -0.19,0.039 -0.28,0.039 v 0 c -0.239,0 -0.42,-0.059 -0.54,-0.17 v 0 c -0.13,-0.109 -0.19,-0.259 -0.19,-0.46 v 0 c 0,-0.299 0.13,-0.499 0.39,-0.62 v 0 c 0.26,-0.109 0.641,-0.16 1.16,-0.16 v 0 c 0.52,0 0.94,0.08 1.25,0.24 v 0 c 0.32,0.161 0.57,0.391 0.75,0.691 v 0 c 0.19,0.3 0.39,0.71 0.58,1.241 v 0 l 2.301,5.999 c 0.049,0.159 0.1,0.31 0.139,0.46 v 0 c 0.04,0.149 0.06,0.27 0.08,0.35 v 0 c 0,0.13 -0.03,0.259 -0.101,0.38 v 0 c -0.069,0.12 -0.159,0.21 -0.279,0.28 v 0 c -0.12,0.069 -0.25,0.11 -0.38,0.11 v 0 c -0.19,0 -0.33,-0.03 -0.43,-0.1" />
    </clipPath>
    <linearGradient
       id="linearGradient1260"
       spreadMethod="pad"
       gradientTransform="matrix(6.6499,0,0,-6.6499,233.459,16.818399)"
       gradientUnits="userSpaceOnUse"
       y2="0"
       x2="1"
       y1="0"
       x1="0">
      <stop
         id="stop1256"
         offset="0"
         style="stop-opacity:1;stop-color:#fafafa" />
      <stop
         id="stop1258"
         offset="1"
         style="stop-opacity:1;stop-color:#eeeeee" />
    </linearGradient>
    <clipPath
       id="clipPath1270"
       clipPathUnits="userSpaceOnUse">
      <path
         inkscape:connector-curvature="0"
         id="path1268"
         d="m 262.655,24.089 c -0.333,-0.147 -0.571,-0.384 -0.71,-0.708 v 0 c -0.14,-0.326 -0.207,-0.761 -0.207,-1.313 v 0 -0.527 h -0.419 c -0.588,0 -0.883,-0.209 -0.883,-0.632 v 0 c 0,-0.188 0.071,-0.344 0.212,-0.459 v 0 c 0.144,-0.121 0.343,-0.177 0.606,-0.177 v 0 h 0.484 v -4.657 c 0,-0.347 0.081,-0.61 0.248,-0.792 v 0 c 0.166,-0.185 0.372,-0.275 0.621,-0.275 v 0 c 0.263,0 0.475,0.09 0.639,0.275 v 0 c 0.168,0.182 0.25,0.445 0.25,0.792 v 0 4.657 h 0.429 c 0.314,0 0.561,0.037 0.737,0.116 v 0 c 0.181,0.077 0.266,0.261 0.266,0.545 v 0 c 0,0.406 -0.332,0.607 -1.003,0.607 v 0 h -0.429 v 0.418 c 0,0.349 0.046,0.617 0.132,0.803 v 0 c 0.095,0.185 0.297,0.281 0.614,0.281 v 0 c 0.115,0 0.261,-0.016 0.422,-0.038 v 0 c 0.169,-0.027 0.29,-0.041 0.357,-0.041 v 0 c 0.146,0 0.274,0.06 0.378,0.175 v 0 c 0.11,0.115 0.163,0.255 0.163,0.417 v 0 c 0,0.506 -0.51,0.755 -1.54,0.755 v 0 c -0.579,0 -1.035,-0.075 -1.367,-0.222" />
    </clipPath>
    <linearGradient
       id="linearGradient1280"
       spreadMethod="pad"
       gradientTransform="matrix(5.1269999,0,0,-5.1269999,260.43549,19.429649)"
       gradientUnits="userSpaceOnUse"
       y2="0"
       x2="1"
       y1="0"
       x1="0">
      <stop
         id="stop1276"
         offset="0"
         style="stop-opacity:1;stop-color:#fafafa" />
      <stop
         id="stop1278"
         offset="1"
         style="stop-opacity:1;stop-color:#eeeeee" />
    </linearGradient>
    <clipPath
       id="clipPath1290"
       clipPathUnits="userSpaceOnUse">
      <path
         inkscape:connector-curvature="0"
         id="path1288"
         d="m 267.656,21.42 c -0.219,-0.185 -0.434,-0.457 -0.642,-0.819 v 0 c -0.016,0.362 -0.088,0.634 -0.215,0.819 v 0 c -0.13,0.185 -0.339,0.276 -0.633,0.276 v 0 c -0.571,0 -0.854,-0.395 -0.854,-1.185 v 0 -4.895 c 0,-0.351 0.084,-0.617 0.244,-0.796 v 0 c 0.162,-0.182 0.369,-0.271 0.628,-0.271 v 0 c 0.256,0 0.467,0.088 0.635,0.268 v 0 c 0.163,0.176 0.253,0.443 0.253,0.799 v 0 1.469 c 0,0.527 0.016,0.975 0.049,1.343 v 0 c 0.036,0.365 0.097,0.684 0.184,0.952 v 0 c 0.091,0.263 0.218,0.461 0.383,0.601 v 0 c 0.162,0.132 0.373,0.201 0.632,0.201 v 0 c 0.185,0 0.405,-0.039 0.651,-0.116 v 0 c 0.246,-0.08 0.403,-0.123 0.47,-0.123 v 0 c 0.171,0 0.329,0.069 0.479,0.212 v 0 c 0.146,0.136 0.22,0.316 0.22,0.53 v 0 c 0,0.303 -0.173,0.55 -0.522,0.735 v 0 c -0.348,0.185 -0.702,0.276 -1.074,0.276 v 0 c -0.371,0 -0.664,-0.091 -0.888,-0.276" />
    </clipPath>
    <linearGradient
       id="linearGradient1300"
       spreadMethod="pad"
       gradientTransform="matrix(4.8291001,0,0,-4.8291001,265.31149,18.122549)"
       gradientUnits="userSpaceOnUse"
       y2="0"
       x2="1"
       y1="0"
       x1="0">
      <stop
         id="stop1296"
         offset="0"
         style="stop-opacity:1;stop-color:#fafafa" />
      <stop
         id="stop1298"
         offset="1"
         style="stop-opacity:1;stop-color:#eeeeee" />
    </linearGradient>
    <clipPath
       id="clipPath1310"
       clipPathUnits="userSpaceOnUse">
      <path
         inkscape:connector-curvature="0"
         id="path1308"
         d="m 271.919,21.454 c -0.429,-0.17 -0.8,-0.41 -1.09,-0.731 v 0 c -0.3,-0.32 -0.53,-0.7 -0.68,-1.139 v 0 c -0.16,-0.45 -0.23,-0.931 -0.23,-1.45 v 0 c 0,-1.1 0.31,-1.981 0.94,-2.621 v 0 c 0.62,-0.639 1.501,-0.959 2.63,-0.959 v 0 c 0.49,0 0.93,0.06 1.31,0.19 v 0 c 0.38,0.13 0.7,0.291 0.95,0.479 v 0 c 0.25,0.201 0.44,0.401 0.57,0.621 v 0 c 0.12,0.209 0.18,0.389 0.18,0.549 v 0 c 0,0.181 -0.06,0.321 -0.17,0.421 v 0 c -0.11,0.1 -0.259,0.15 -0.44,0.15 v 0 c -0.161,0 -0.29,-0.04 -0.38,-0.12 v 0 c -0.22,-0.2 -0.4,-0.37 -0.54,-0.479 v 0 c -0.14,-0.132 -0.28,-0.241 -0.449,-0.341 v 0 c -0.16,-0.11 -0.331,-0.19 -0.501,-0.23 v 0 c -0.18,-0.06 -0.369,-0.08 -0.579,-0.08 v 0 c -0.311,0 -0.601,0.08 -0.861,0.229 v 0 c -0.26,0.161 -0.469,0.391 -0.63,0.691 v 0 c -0.15,0.3 -0.23,0.66 -0.24,1.059 v 0 h 3.441 c 0.46,0 0.819,0.061 1.069,0.191 v 0 c 0.249,0.139 0.38,0.419 0.38,0.86 v 0 c 0,0.48 -0.121,0.94 -0.37,1.41 v 0 c -0.239,0.461 -0.61,0.83 -1.1,1.119 v 0 c -0.49,0.29 -1.08,0.431 -1.769,0.431 v 0 c -0.531,0 -1.011,-0.08 -1.441,-0.25 m 0.309,-1.42 c 0.281,0.3 0.641,0.449 1.07,0.449 v 0 c 0.471,0 0.831,-0.149 1.121,-0.449 v 0 c 0.28,-0.29 0.44,-0.74 0.481,-1.341 v 0 h -3.191 c 0.06,0.591 0.23,1.03 0.519,1.341" />
    </clipPath>
    <linearGradient
       id="linearGradient1320"
       spreadMethod="pad"
       gradientTransform="matrix(6.6796999,0,0,-6.6796999,269.91891,18.1289)"
       gradientUnits="userSpaceOnUse"
       y2="0"
       x2="1"
       y1="0"
       x1="0">
      <stop
         id="stop1316"
         offset="0"
         style="stop-opacity:1;stop-color:#fafafa" />
      <stop
         id="stop1318"
         offset="1"
         style="stop-opacity:1;stop-color:#eeeeee" />
    </linearGradient>
    <clipPath
       id="clipPath1330"
       clipPathUnits="userSpaceOnUse">
      <path
         inkscape:connector-curvature="0"
         id="path1328"
         d="m 279.229,21.454 c -0.44,-0.17 -0.801,-0.41 -1.09,-0.731 v 0 c -0.3,-0.32 -0.53,-0.7 -0.68,-1.139 v 0 c -0.16,-0.45 -0.24,-0.931 -0.24,-1.45 v 0 c 0,-1.1 0.32,-1.981 0.95,-2.621 v 0 c 0.62,-0.639 1.5,-0.959 2.63,-0.959 v 0 c 0.49,0 0.93,0.06 1.31,0.19 v 0 c 0.38,0.13 0.7,0.291 0.95,0.479 v 0 c 0.249,0.201 0.44,0.401 0.56,0.621 v 0 c 0.13,0.209 0.18,0.389 0.18,0.549 v 0 c 0,0.181 -0.05,0.321 -0.16,0.421 v 0 c -0.109,0.1 -0.261,0.15 -0.44,0.15 v 0 c -0.16,0 -0.289,-0.04 -0.379,-0.12 v 0 c -0.222,-0.2 -0.401,-0.37 -0.54,-0.479 v 0 c -0.142,-0.132 -0.281,-0.241 -0.451,-0.341 v 0 c -0.161,-0.11 -0.33,-0.19 -0.51,-0.23 v 0 c -0.17,-0.06 -0.36,-0.08 -0.57,-0.08 v 0 c -0.31,0 -0.6,0.08 -0.861,0.229 v 0 c -0.259,0.161 -0.47,0.391 -0.619,0.691 v 0 c -0.159,0.3 -0.239,0.66 -0.249,1.059 v 0 h 3.439 c 0.46,0 0.82,0.061 1.071,0.191 v 0 c 0.249,0.139 0.379,0.419 0.379,0.86 v 0 c 0,0.48 -0.12,0.94 -0.37,1.41 v 0 c -0.241,0.461 -0.611,0.83 -1.099,1.119 v 0 c -0.501,0.29 -1.08,0.431 -1.771,0.431 v 0 c -0.531,0 -1.01,-0.08 -1.44,-0.25 m 0.3,-1.42 c 0.29,0.3 0.65,0.449 1.08,0.449 v 0 c 0.46,0 0.83,-0.149 1.12,-0.449 v 0 c 0.28,-0.29 0.44,-0.74 0.48,-1.341 v 0 h -3.189 c 0.059,0.591 0.229,1.03 0.509,1.341" />
    </clipPath>
    <linearGradient
       id="linearGradient1340"
       spreadMethod="pad"
       gradientTransform="matrix(6.6904001,0,0,-6.6904001,277.21881,18.1289)"
       gradientUnits="userSpaceOnUse"
       y2="0"
       x2="1"
       y1="0"
       x1="0">
      <stop
         id="stop1336"
         offset="0"
         style="stop-opacity:1;stop-color:#fafafa" />
      <stop
         id="stop1338"
         offset="1"
         style="stop-opacity:1;stop-color:#eeeeee" />
    </linearGradient>
    <clipPath
       id="clipPath1350"
       clipPathUnits="userSpaceOnUse">
      <path
         inkscape:connector-curvature="0"
         id="path1348"
         d="m 284.869,21.454 c -0.15,-0.17 -0.22,-0.42 -0.22,-0.76 v 0 -7.58 c 0,-0.391 0.06,-0.671 0.16,-0.88 v 0 c 0.11,-0.19 0.33,-0.291 0.659,-0.291 v 0 c 0.561,0 0.841,0.391 0.841,1.16 v 0 2.631 c 0.18,-0.221 0.36,-0.41 0.551,-0.57 v 0 c 0.139,-0.12 0.279,-0.22 0.429,-0.31 v 0 c 0.34,-0.201 0.76,-0.3 1.26,-0.3 v 0 c 0.419,0 0.81,0.08 1.17,0.24 v 0 c 0.37,0.17 0.68,0.41 0.949,0.71 v 0 c 0.261,0.31 0.47,0.69 0.63,1.14 v 0 c 0.151,0.45 0.222,0.95 0.222,1.49 v 0 c 0,0.07 0,0.14 -0.011,0.21 v 0 c -0.02,0.651 -0.149,1.209 -0.38,1.7 v 0 c -0.27,0.53 -0.63,0.94 -1.081,1.219 v 0 c -0.459,0.281 -0.959,0.421 -1.499,0.421 v 0 c -0.45,0 -0.85,-0.1 -1.201,-0.29 v 0 c -0.359,-0.19 -0.71,-0.491 -1.039,-0.9 v 0 0.21 c 0,0.33 -0.069,0.569 -0.23,0.739 v 0 c -0.16,0.171 -0.36,0.251 -0.611,0.251 v 0 c -0.249,0 -0.449,-0.08 -0.599,-0.24 m 3.081,-5.53 c -0.421,0.03 -0.772,0.229 -1.062,0.57 v 0 c -0.33,0.38 -0.488,0.93 -0.488,1.63 v 0 c 0,0.74 0.158,1.3 0.499,1.69 v 0 c 0.33,0.379 0.74,0.57 1.22,0.57 v 0 c 0.309,0 0.59,-0.09 0.84,-0.27 v 0 c 0.25,-0.181 0.441,-0.43 0.58,-0.77 v 0 c 0.15,-0.331 0.22,-0.729 0.22,-1.191 v 0 c 0,-0.429 -0.06,-0.799 -0.189,-1.109 v 0 c -0.011,-0.04 -0.021,-0.08 -0.041,-0.12 v 0 c -0.15,-0.34 -0.339,-0.59 -0.6,-0.76 v 0 c -0.24,-0.17 -0.52,-0.261 -0.81,-0.261 v 0 c -0.06,0 -0.12,0 -0.169,0.021" />
    </clipPath>
    <linearGradient
       id="linearGradient1360"
       spreadMethod="pad"
       gradientTransform="matrix(6.8701,0,0,-6.8701,284.64941,16.818399)"
       gradientUnits="userSpaceOnUse"
       y2="0"
       x2="1"
       y1="0"
       x1="0">
      <stop
         id="stop1356"
         offset="0"
         style="stop-opacity:1;stop-color:#fafafa" />
      <stop
         id="stop1358"
         offset="1"
         style="stop-opacity:1;stop-color:#eeeeee" />
    </linearGradient>
    <clipPath
       id="clipPath1370"
       clipPathUnits="userSpaceOnUse">
      <path
         inkscape:connector-curvature="0"
         id="path1368"
         d="m 292.669,23.994 c -0.18,-0.16 -0.27,-0.37 -0.27,-0.62 v 0 c 0,-0.27 0.09,-0.481 0.27,-0.63 v 0 c 0.17,-0.15 0.38,-0.23 0.62,-0.23 v 0 c 0.241,0 0.439,0.08 0.62,0.23 v 0 c 0.17,0.149 0.251,0.36 0.251,0.63 v 0 c 0,0.279 -0.09,0.5 -0.26,0.64 v 0 c -0.181,0.15 -0.38,0.219 -0.611,0.219 v 0 c -0.23,0 -0.441,-0.08 -0.62,-0.239 m -0.02,-2.56 c -0.16,-0.181 -0.25,-0.44 -0.25,-0.791 v 0 -5.029 c 0,-0.341 0.09,-0.6 0.25,-0.79 v 0 c 0.16,-0.18 0.37,-0.27 0.621,-0.27 v 0 c 0.26,0 0.469,0.08 0.639,0.27 v 0 c 0.17,0.18 0.251,0.44 0.251,0.79 v 0 5.08 c 0,0.32 -0.081,0.559 -0.251,0.74 v 0 c -0.17,0.18 -0.379,0.26 -0.639,0.26 v 0 c -0.251,0 -0.461,-0.08 -0.621,-0.26" />
    </clipPath>
    <linearGradient
       id="linearGradient1380"
       spreadMethod="pad"
       gradientTransform="matrix(1.7598,0,0,-1.7598,292.39941,19.393551)"
       gradientUnits="userSpaceOnUse"
       y2="0"
       x2="1"
       y1="0"
       x1="0">
      <stop
         id="stop1376"
         offset="0"
         style="stop-opacity:1;stop-color:#fafafa" />
      <stop
         id="stop1378"
         offset="1"
         style="stop-opacity:1;stop-color:#eeeeee" />
    </linearGradient>
    <clipPath
       id="clipPath1390"
       clipPathUnits="userSpaceOnUse">
      <path
         inkscape:connector-curvature="0"
         id="path1388"
         d="m 295.796,24.004 c -0.147,-0.205 -0.223,-0.502 -0.223,-0.889 v 0 -7.499 c 0,-0.351 0.079,-0.617 0.232,-0.796 v 0 c 0.153,-0.182 0.367,-0.271 0.637,-0.271 v 0 c 0.23,0 0.44,0.09 0.615,0.275 v 0 c 0.178,0.182 0.268,0.441 0.268,0.779 v 0 1.4 l 0.954,0.901 1.548,-2.553 c 0.197,-0.301 0.357,-0.511 0.472,-0.628 v 0 c 0.116,-0.12 0.284,-0.174 0.498,-0.174 v 0 c 0.246,0 0.448,0.079 0.6,0.24 v 0 c 0.153,0.163 0.231,0.38 0.231,0.661 v 0 c 0,0.096 -0.031,0.206 -0.088,0.313 v 0 c -0.058,0.11 -0.156,0.265 -0.287,0.478 v 0 l -1.801,2.835 0.932,0.855 c 0.475,0.43 0.715,0.775 0.715,1.032 v 0 c 0,0.208 -0.074,0.385 -0.217,0.525 v 0 c -0.151,0.138 -0.332,0.208 -0.553,0.208 v 0 c -0.184,0 -0.339,-0.046 -0.467,-0.141 v 0 c -0.131,-0.093 -0.315,-0.273 -0.56,-0.527 v 0 l -1.977,-2.076 v 4.264 c 0,0.36 -0.081,0.632 -0.24,0.815 v 0 c -0.159,0.187 -0.372,0.28 -0.643,0.28 v 0 c -0.277,0 -0.495,-0.1 -0.646,-0.307" />
    </clipPath>
    <linearGradient
       id="linearGradient1400"
       spreadMethod="pad"
       gradientTransform="matrix(6.0556002,0,0,-6.0556002,295.5723,19.429649)"
       gradientUnits="userSpaceOnUse"
       y2="0"
       x2="1"
       y1="0"
       x1="0">
      <stop
         id="stop1396"
         offset="0"
         style="stop-opacity:1;stop-color:#fafafa" />
      <stop
         id="stop1398"
         offset="1"
         style="stop-opacity:1;stop-color:#eeeeee" />
    </linearGradient>
    <clipPath
       id="clipPath1410"
       clipPathUnits="userSpaceOnUse">
      <path
         inkscape:connector-curvature="0"
         id="path1408"
         d="m 302.947,16.203 c -0.184,-0.187 -0.278,-0.413 -0.278,-0.674 v 0 c 0,-0.311 0.098,-0.553 0.291,-0.722 v 0 c 0.194,-0.172 0.422,-0.258 0.686,-0.258 v 0 c 0.257,0 0.483,0.086 0.677,0.261 v 0 c 0.189,0.171 0.286,0.412 0.286,0.719 v 0 c 0,0.264 -0.097,0.492 -0.286,0.678 v 0 c -0.194,0.186 -0.424,0.279 -0.692,0.279 v 0 c -0.272,0 -0.498,-0.093 -0.684,-0.283" />
    </clipPath>
    <linearGradient
       id="linearGradient1420"
       spreadMethod="pad"
       gradientTransform="matrix(1.9405,0,0,-1.9405,302.66891,15.517551)"
       gradientUnits="userSpaceOnUse"
       y2="0"
       x2="1"
       y1="0"
       x1="0">
      <stop
         id="stop1416"
         offset="0"
         style="stop-opacity:1;stop-color:#fafafa" />
      <stop
         id="stop1418"
         offset="1"
         style="stop-opacity:1;stop-color:#eeeeee" />
    </linearGradient>
    <clipPath
       id="clipPath1430"
       clipPathUnits="userSpaceOnUse">
      <path
         inkscape:connector-curvature="0"
         id="path1428"
         d="m 307.37,21.255 c -0.528,-0.303 -0.932,-0.731 -1.208,-1.283 v 0 c -0.281,-0.555 -0.419,-1.192 -0.419,-1.914 v 0 c 0,-1.065 0.305,-1.915 0.912,-2.549 v 0 c 0.609,-0.631 1.458,-0.95 2.547,-0.95 v 0 c 0.508,0 0.969,0.072 1.376,0.208 v 0 c 0.408,0.136 0.745,0.32 1.013,0.545 v 0 c 0.269,0.225 0.47,0.461 0.6,0.712 v 0 c 0.132,0.247 0.198,0.483 0.198,0.701 v 0 c 0,0.182 -0.073,0.358 -0.215,0.521 v 0 c -0.14,0.162 -0.319,0.246 -0.534,0.246 v 0 c -0.18,0 -0.334,-0.058 -0.458,-0.17 v 0 c -0.122,-0.112 -0.237,-0.265 -0.345,-0.462 v 0 c -0.191,-0.337 -0.414,-0.584 -0.668,-0.747 v 0 c -0.25,-0.164 -0.552,-0.245 -0.906,-0.245 v 0 c -0.259,0 -0.5,0.049 -0.72,0.153 v 0 c -0.219,0.101 -0.405,0.248 -0.56,0.443 v 0 c -0.156,0.195 -0.274,0.432 -0.353,0.708 v 0 c -0.081,0.276 -0.124,0.582 -0.124,0.913 v 0 c 0,0.701 0.16,1.26 0.477,1.663 v 0 c 0.317,0.407 0.74,0.608 1.256,0.608 v 0 c 0.362,0 0.657,-0.081 0.89,-0.245 v 0 c 0.237,-0.161 0.46,-0.407 0.674,-0.731 v 0 c 0.119,-0.171 0.228,-0.291 0.325,-0.368 v 0 c 0.097,-0.073 0.219,-0.113 0.367,-0.113 v 0 c 0.219,0 0.409,0.075 0.568,0.22 v 0 c 0.156,0.146 0.233,0.326 0.233,0.534 v 0 c 0,0.207 -0.069,0.431 -0.208,0.669 v 0 c -0.139,0.237 -0.342,0.459 -0.603,0.672 v 0 c -0.266,0.209 -0.586,0.383 -0.966,0.515 v 0 c -0.383,0.133 -0.799,0.2 -1.256,0.2 v 0 c -0.73,0 -1.366,-0.15 -1.893,-0.454" />
    </clipPath>
    <linearGradient
       id="linearGradient1440"
       spreadMethod="pad"
       gradientTransform="matrix(6.6455002,0,0,-6.6455002,305.74319,18.1343)"
       gradientUnits="userSpaceOnUse"
       y2="0"
       x2="1"
       y1="0"
       x1="0">
      <stop
         id="stop1436"
         offset="0"
         style="stop-opacity:1;stop-color:#fafafa" />
      <stop
         id="stop1438"
         offset="1"
         style="stop-opacity:1;stop-color:#eeeeee" />
    </linearGradient>
    <clipPath
       id="clipPath1450"
       clipPathUnits="userSpaceOnUse">
      <path
         inkscape:connector-curvature="0"
         id="path1448"
         d="m 315.03,21.443 c -0.431,-0.17 -0.801,-0.409 -1.111,-0.729 v 0 c -0.3,-0.311 -0.54,-0.691 -0.7,-1.13 v 0 c -0.16,-0.44 -0.24,-0.931 -0.24,-1.46 v 0 c 0,-0.53 0.08,-1.01 0.23,-1.451 v 0 c 0.17,-0.429 0.4,-0.809 0.72,-1.129 v 0 c 0.3,-0.321 0.68,-0.571 1.101,-0.74 v 0 c 0.419,-0.17 0.899,-0.26 1.439,-0.26 v 0 c 0.53,0 1.01,0.09 1.45,0.26 v 0 c 0.42,0.169 0.79,0.41 1.1,0.73 v 0 c 0.31,0.32 0.55,0.699 0.71,1.139 v 0 c 0.16,0.441 0.24,0.93 0.24,1.451 v 0 c 0,0.529 -0.08,1.01 -0.24,1.45 v 0 c -0.16,0.43 -0.39,0.81 -0.7,1.13 v 0 c -0.31,0.319 -0.68,0.559 -1.11,0.73 v 0 c -0.44,0.18 -0.92,0.26 -1.45,0.26 v 0 c -0.529,0 -1.01,-0.08 -1.439,-0.251 m 0.519,-5.319 c -0.26,0.189 -0.46,0.45 -0.599,0.8 v 0 c -0.142,0.34 -0.211,0.74 -0.211,1.2 v 0 c 0,0.46 0.069,0.871 0.211,1.22 v 0 c 0.139,0.34 0.339,0.61 0.609,0.79 v 0 c 0.26,0.17 0.56,0.26 0.91,0.26 v 0 c 0.53,0 0.95,-0.201 1.271,-0.6 v 0 c 0.309,-0.401 0.469,-0.96 0.469,-1.67 v 0 c 0,-0.71 -0.16,-1.26 -0.469,-1.66 v 0 c -0.321,-0.411 -0.741,-0.61 -1.271,-0.61 v 0 c -0.359,0 -0.661,0.089 -0.92,0.27" />
    </clipPath>
    <linearGradient
       id="linearGradient1460"
       spreadMethod="pad"
       gradientTransform="matrix(6.9903002,0,0,-6.9903002,312.97849,18.11865)"
       gradientUnits="userSpaceOnUse"
       y2="0"
       x2="1"
       y1="0"
       x1="0">
      <stop
         id="stop1456"
         offset="0"
         style="stop-opacity:1;stop-color:#fafafa" />
      <stop
         id="stop1458"
         offset="1"
         style="stop-opacity:1;stop-color:#eeeeee" />
    </linearGradient>
    <clipPath
       id="clipPath1470"
       clipPathUnits="userSpaceOnUse">
      <path
         inkscape:connector-curvature="0"
         id="path1468"
         d="m 320.954,21.437 c -0.152,-0.169 -0.227,-0.421 -0.227,-0.752 v 0 -5.029 c 0,-0.364 0.084,-0.641 0.254,-0.829 v 0 c 0.17,-0.186 0.388,-0.279 0.656,-0.279 v 0 c 0.27,0 0.485,0.093 0.654,0.279 v 0 c 0.162,0.188 0.245,0.465 0.245,0.829 v 0 2.374 c 0,0.74 0.094,1.308 0.275,1.699 v 0 c 0.183,0.399 0.56,0.597 1.136,0.597 v 0 c 0.286,0 0.498,-0.079 0.631,-0.239 v 0 c 0.132,-0.155 0.215,-0.358 0.246,-0.597 v 0 c 0.028,-0.247 0.044,-0.592 0.044,-1.034 v 0 -2.8 c 0,-0.37 0.083,-0.644 0.251,-0.832 v 0 c 0.16,-0.185 0.378,-0.276 0.645,-0.276 v 0 c 0.275,0 0.493,0.091 0.662,0.276 v 0 c 0.169,0.188 0.251,0.462 0.251,0.832 v 0 2.336 c 0,0.752 0.066,1.278 0.192,1.574 v 0 c 0.117,0.228 0.28,0.417 0.488,0.551 v 0 c 0.209,0.136 0.428,0.209 0.661,0.209 v 0 c 0.286,0 0.502,-0.079 0.645,-0.234 v 0 c 0.139,-0.153 0.228,-0.345 0.26,-0.574 v 0 c 0.03,-0.226 0.047,-0.528 0.047,-0.906 v 0 -2.956 c 0,-0.364 0.084,-0.641 0.254,-0.829 v 0 c 0.171,-0.186 0.387,-0.279 0.654,-0.279 v 0 c 0.274,0 0.497,0.091 0.664,0.276 v 0 c 0.166,0.188 0.249,0.462 0.249,0.832 v 0 3.431 c 0,0.682 -0.074,1.183 -0.224,1.503 v 0 c -0.172,0.349 -0.433,0.621 -0.778,0.809 v 0 c -0.347,0.188 -0.763,0.285 -1.242,0.285 v 0 c -0.413,0 -0.789,-0.088 -1.127,-0.262 v 0 c -0.339,-0.175 -0.657,-0.441 -0.955,-0.8 v 0 c -0.208,0.353 -0.469,0.622 -0.787,0.798 v 0 c -0.316,0.175 -0.695,0.264 -1.137,0.264 v 0 c -0.428,0 -0.81,-0.086 -1.161,-0.262 v 0 c -0.345,-0.169 -0.671,-0.438 -0.978,-0.8 v 0 0.166 c 0,0.284 -0.08,0.506 -0.241,0.667 v 0 c -0.163,0.158 -0.362,0.241 -0.605,0.241 v 0 c -0.245,0 -0.447,-0.084 -0.602,-0.259" />
    </clipPath>
    <linearGradient
       id="linearGradient1480"
       spreadMethod="pad"
       gradientTransform="matrix(10.0644,0,0,-10.0644,320.72659,18.122101)"
       gradientUnits="userSpaceOnUse"
       y2="0"
       x2="1"
       y1="0"
       x1="0">
      <stop
         id="stop1476"
         offset="0"
         style="stop-opacity:1;stop-color:#fafafa" />
      <stop
         id="stop1478"
         offset="1"
         style="stop-opacity:1;stop-color:#eeeeee" />
    </linearGradient>
    <clipPath
       id="clipPath1490"
       clipPathUnits="userSpaceOnUse">
      <path
         inkscape:connector-curvature="0"
         id="path1488"
         d="m 244.872,18.547 c -0.002,0.003 -0.002,0.006 -0.002,0.012 v 0 c 0,-0.006 0,-0.009 0.002,-0.012" />
    </clipPath>
    <linearGradient
       id="linearGradient1500"
       spreadMethod="pad"
       gradientTransform="matrix(0.0015,0,0,-0.0015,244.87061,18.55275)"
       gradientUnits="userSpaceOnUse"
       y2="0"
       x2="1"
       y1="0"
       x1="0">
      <stop
         id="stop1496"
         offset="0"
         style="stop-opacity:1;stop-color:#fafafa" />
      <stop
         id="stop1498"
         offset="1"
         style="stop-opacity:1;stop-color:#eeeeee" />
    </linearGradient>
    <clipPath
       id="clipPath1510"
       clipPathUnits="userSpaceOnUse">
      <path
         inkscape:connector-curvature="0"
         id="path1508"
         d="m 244.961,17.985 h 0.002 c -0.033,0.16 -0.06,0.318 -0.081,0.475 v 0 c 0.021,-0.159 0.048,-0.318 0.079,-0.475" />
    </clipPath>
    <linearGradient
       id="linearGradient1520"
       spreadMethod="pad"
       gradientTransform="matrix(0.0806,0,0,-0.0806,244.88229,18.2222)"
       gradientUnits="userSpaceOnUse"
       y2="0"
       x2="1"
       y1="0"
       x1="0">
      <stop
         id="stop1516"
         offset="0"
         style="stop-opacity:1;stop-color:#fafafa" />
      <stop
         id="stop1518"
         offset="1"
         style="stop-opacity:1;stop-color:#eeeeee" />
    </linearGradient>
    <clipPath
       id="clipPath1530"
       clipPathUnits="userSpaceOnUse">
      <path
         inkscape:connector-curvature="0"
         id="path1528"
         d="m 245.542,16.354 c -0.003,0.006 -0.007,0.014 -0.011,0.022 v 0 c 0.004,-0.008 0.008,-0.016 0.011,-0.022" />
    </clipPath>
    <linearGradient
       id="linearGradient1540"
       spreadMethod="pad"
       gradientTransform="matrix(0.0117,0,0,-0.0117,245.53081,16.36475)"
       gradientUnits="userSpaceOnUse"
       y2="0"
       x2="1"
       y1="0"
       x1="0">
      <stop
         id="stop1536"
         offset="0"
         style="stop-opacity:1;stop-color:#fafafa" />
      <stop
         id="stop1538"
         offset="1"
         style="stop-opacity:1;stop-color:#eeeeee" />
    </linearGradient>
    <clipPath
       id="clipPath1550"
       clipPathUnits="userSpaceOnUse">
      <path
         inkscape:connector-curvature="0"
         id="path1548"
         d="m 245.487,16.462 c -0.016,0.031 -0.03,0.061 -0.044,0.091 v 0 c 0.014,-0.032 0.028,-0.06 0.044,-0.091" />
    </clipPath>
    <linearGradient
       id="linearGradient1560"
       spreadMethod="pad"
       gradientTransform="matrix(0.0444,0,0,-0.0444,245.4424,16.507299)"
       gradientUnits="userSpaceOnUse"
       y2="0"
       x2="1"
       y1="0"
       x1="0">
      <stop
         id="stop1556"
         offset="0"
         style="stop-opacity:1;stop-color:#fafafa" />
      <stop
         id="stop1558"
         offset="1"
         style="stop-opacity:1;stop-color:#eeeeee" />
    </linearGradient>
    <clipPath
       id="clipPath1570"
       clipPathUnits="userSpaceOnUse">
      <path
         inkscape:connector-curvature="0"
         id="path1568"
         d="m 245.124,17.357 c 0.086,-0.272 0.19,-0.535 0.31,-0.785 v 0 c -0.122,0.255 -0.224,0.519 -0.307,0.785 v 0 z" />
    </clipPath>
    <linearGradient
       id="linearGradient1580"
       spreadMethod="pad"
       gradientTransform="matrix(0.3101,0,0,-0.3101,245.12399,16.96385)"
       gradientUnits="userSpaceOnUse"
       y2="0"
       x2="1"
       y1="0"
       x1="0">
      <stop
         id="stop1576"
         offset="0"
         style="stop-opacity:1;stop-color:#fafafa" />
      <stop
         id="stop1578"
         offset="1"
         style="stop-opacity:1;stop-color:#eeeeee" />
    </linearGradient>
    <clipPath
       id="clipPath1590"
       clipPathUnits="userSpaceOnUse">
      <path
         inkscape:connector-curvature="0"
         id="path1588"
         d="m 249.851,26.863 c 0,-0.345 0.243,-0.633 0.567,-0.701 v 0 l 0.09,-0.313 c -1.107,-0.153 -1.989,-0.585 -1.989,-0.585 v 0 l 0.155,-0.478 c 0.671,0.224 1.252,0.358 1.779,0.416 v 0 c 0.516,0.055 0.905,0.078 1.222,0.078 v 0 c 0.339,0 0.59,-0.026 0.878,-0.075 v 0 l 0.081,0.517 c 0,0 -0.794,0.244 -1.837,0.159 v 0 l -0.082,0.281 c 0.324,0.068 0.567,0.356 0.567,0.701 v 0 c 0,0.394 -0.321,0.714 -0.716,0.714 v 0 c -0.395,0 -0.715,-0.32 -0.715,-0.714" />
    </clipPath>
    <linearGradient
       id="linearGradient1600"
       spreadMethod="pad"
       gradientTransform="matrix(4.1152,0,0,-4.1152,248.5186,26.181601)"
       gradientUnits="userSpaceOnUse"
       y2="0"
       x2="1"
       y1="0"
       x1="0">
      <stop
         id="stop1596"
         offset="0"
         style="stop-opacity:1;stop-color:#fafafa" />
      <stop
         id="stop1598"
         offset="1"
         style="stop-opacity:1;stop-color:#eeeeee" />
    </linearGradient>
    <clipPath
       id="clipPath1610"
       clipPathUnits="userSpaceOnUse">
      <path
         inkscape:connector-curvature="0"
         id="path1608"
         d="m 244.118,21.775 c -0.018,0.027 -0.038,0.054 -0.061,0.081 v 0 c -0.124,0.134 -0.296,0.201 -0.514,0.198 v 0 h -0.01 c -0.135,0 -0.228,0.046 -0.289,0.1 v 0 c 0.06,0.077 0.096,0.173 0.096,0.28 v 0 c 0,0.25 -0.203,0.454 -0.453,0.454 v 0 c -0.25,0 -0.453,-0.204 -0.453,-0.454 v 0 c 0,-0.251 0.203,-0.453 0.453,-0.453 v 0 c 0.039,0 0.077,0.006 0.113,0.013 v 0 c 0.112,-0.123 0.288,-0.231 0.547,-0.226 v 0 c 0.133,10e-4 0.232,-0.033 0.296,-0.105 v 0 c 0.076,-0.082 0.101,-0.2 0.109,-0.29 v 0 c -0.001,-0.001 -0.001,-0.003 -0.002,-0.003 v 0 c -0.295,-0.807 -0.211,-1.809 -0.211,-1.809 v 0 l 0.716,-0.029 c 0.016,0.365 0.068,1.004 0.252,1.512 v 0 c 0.358,0.982 0.804,1.595 0.822,1.622 v 0 l 0.004,0.005 c 0.026,0.034 0.052,0.066 0.077,0.096 v 0 l -0.212,0.154 -0.331,0.241 c -0.019,-0.026 -0.539,-0.504 -0.949,-1.387" />
    </clipPath>
    <linearGradient
       id="linearGradient1620"
       spreadMethod="pad"
       gradientTransform="matrix(3.1763,0,0,-3.1763,242.43359,21.347151)"
       gradientUnits="userSpaceOnUse"
       y2="0"
       x2="1"
       y1="0"
       x1="0">
      <stop
         id="stop1616"
         offset="0"
         style="stop-opacity:1;stop-color:#fafafa" />
      <stop
         id="stop1618"
         offset="1"
         style="stop-opacity:1;stop-color:#eeeeee" />
    </linearGradient>
    <clipPath
       id="clipPath1630"
       clipPathUnits="userSpaceOnUse">
      <path
         inkscape:connector-curvature="0"
         id="path1628"
         d="m 257.456,24.229 c 0,-0.04 0.006,-0.077 0.016,-0.113 v 0 c -0.124,-0.112 -0.233,-0.289 -0.229,-0.549 v 0 c 0.002,-0.134 -0.032,-0.23 -0.104,-0.296 v 0 c -0.058,-0.05 -0.131,-0.078 -0.201,-0.095 v 0 c -0.533,0.747 -1.19,1.203 -1.19,1.203 v 0 l -0.513,-0.551 c 0.388,-0.353 0.784,-0.797 1.17,-1.349 v 0 c 0.267,-0.381 0.542,-0.874 0.771,-1.366 v 0 l 0.693,0.33 c 0,0 -0.316,0.783 -0.762,1.485 v 0 c 0.077,0.028 0.154,0.07 0.224,0.131 v 0 c 0.136,0.122 0.202,0.295 0.199,0.513 v 0 c -10e-4,0.142 0.045,0.237 0.099,0.3 v 0 c 0.078,-0.06 0.175,-0.098 0.28,-0.098 v 0 c 0.252,0 0.454,0.205 0.454,0.455 v 0 c 0,0.25 -0.202,0.453 -0.454,0.453 v 0 c -0.249,0 -0.453,-0.203 -0.453,-0.453" />
    </clipPath>
    <linearGradient
       id="linearGradient1640"
       spreadMethod="pad"
       gradientTransform="matrix(3.1289001,0,0,-3.1289001,255.23441,22.897449)"
       gradientUnits="userSpaceOnUse"
       y2="0"
       x2="1"
       y1="0"
       x1="0">
      <stop
         id="stop1636"
         offset="0"
         style="stop-opacity:1;stop-color:#fafafa" />
      <stop
         id="stop1638"
         offset="1"
         style="stop-opacity:1;stop-color:#eeeeee" />
    </linearGradient>
    <clipPath
       id="clipPath1650"
       clipPathUnits="userSpaceOnUse">
      <path
         inkscape:connector-curvature="0"
         id="path1648"
         d="m 256.108,18.445 c -0.954,-0.466 -2.527,-1.08 -4.595,-1.368 v 0 c -0.813,-0.113 -1.599,-0.155 -2.324,-0.155 v 0 c -0.942,0 -1.774,0.07 -2.414,0.151 v 0 c -0.729,0.092 -1.3,0.204 -1.648,0.284 v 0 c 0.083,-0.266 0.185,-0.53 0.307,-0.785 v 0 c 0.002,-0.008 0.005,-0.015 0.009,-0.019 v 0 c 0.014,-0.03 0.028,-0.06 0.044,-0.091 v 0 c 0.014,-0.03 0.029,-0.059 0.044,-0.086 v 0 c 0.004,-0.008 0.008,-0.016 0.011,-0.022 v 0 c 0.206,-0.387 0.452,-0.743 0.733,-1.05 v 0 c 0.976,-1.068 1.97,-1.237 1.979,-1.238 v 0 l 0.016,-0.002 0.015,-0.004 c 0.009,-0.005 0.89,-0.288 2.23,-0.288 v 0 c 1.319,0 2.613,0.265 3.846,0.791 v 0 c 0.912,0.466 1.776,1.176 2.205,1.809 v 0 c 0.331,0.489 0.569,1.011 0.712,1.555 v 0 c 0.074,0.288 0.134,0.75 0.099,1.236 v 0 c -0.269,-0.18 -0.693,-0.438 -1.269,-0.718" />
    </clipPath>
    <linearGradient
       id="linearGradient1660"
       spreadMethod="pad"
       gradientTransform="matrix(12.26083,0,0,-12.26083,245.1265,16.4673)"
       gradientUnits="userSpaceOnUse"
       y2="0"
       x2="1"
       y1="0"
       x1="0">
      <stop
         id="stop1656"
         offset="0"
         style="stop-opacity:1;stop-color:#fafafa" />
      <stop
         id="stop1658"
         offset="1"
         style="stop-opacity:1;stop-color:#eeeeee" />
    </linearGradient>
    <clipPath
       id="clipPath1670"
       clipPathUnits="userSpaceOnUse">
      <path
         inkscape:connector-curvature="0"
         id="path1668"
         d="m 250.489,24.824 c -0.5,-0.051 -1.059,-0.19 -1.71,-0.41 v 0 c -0.92,-0.299 -1.74,-0.78 -2.39,-1.379 v 0 l -0.02,-0.021 c -0.1,-0.09 -0.3,-0.281 -0.53,-0.571 v 0 c -0.03,-0.039 -0.45,-0.63 -0.77,-1.529 v 0 c -0.25,-0.68 -0.24,-1.66 -0.24,-1.67 v 0 c 0,-0.231 0.021,-0.46 0.04,-0.691 v 0 -0.009 c 0.01,-0.03 0.01,-0.05 0.01,-0.08 v 0 c 0.02,-0.161 0.051,-0.32 0.08,-0.48 v 0 c 0.48,-0.12 3.31,-0.78 6.469,-0.34 v 0 c 1.991,0.28 3.491,0.86 4.411,1.31 v 0 c 0.76,0.359 1.25,0.699 1.44,0.84 v 0 c -0.19,0.689 -0.71,1.79 -1.19,2.469 v 0 c -1.349,1.941 -2.819,2.441 -3.57,2.561 v 0 c -0.29,0.05 -0.52,0.07 -0.84,0.07 v 0 c -0.31,0 -0.68,-0.02 -1.19,-0.07 m -3.83,-3.79 c 0,1.05 0.85,1.9 1.91,1.9 v 0 c 1.05,0 1.91,-0.85 1.91,-1.9 v 0 c 0,-1.06 -0.86,-1.91 -1.91,-1.91 v 0 c -1.06,0 -1.91,0.85 -1.91,1.91 m 6.309,0.68 c 0,0.65 0.531,1.179 1.181,1.179 v 0 c 0.65,0 1.18,-0.529 1.18,-1.179 v 0 c 0,-0.66 -0.53,-1.19 -1.18,-1.19 v 0 c -0.65,0 -1.181,0.53 -1.181,1.19" />
    </clipPath>
    <linearGradient
       id="linearGradient1680"
       spreadMethod="pad"
       gradientTransform="matrix(12.45026,0,0,-12.45026,244.82904,21.194033)"
       gradientUnits="userSpaceOnUse"
       y2="0"
       x2="1"
       y1="0"
       x1="0">
      <stop
         id="stop1676"
         offset="0"
         style="stop-opacity:1;stop-color:#fafafa" />
      <stop
         id="stop1678"
         offset="1"
         style="stop-opacity:1;stop-color:#eeeeee" />
    </linearGradient>
  </defs>
  <sodipodi:namedview
     id="base"
     pagecolor="#ffffff"
     bordercolor="#666666"
     borderopacity="1.0"
     inkscape:pageopacity="0.0"
     inkscape:pageshadow="2"
     inkscape:zoom="0.98994948"
     inkscape:cx="464.72705"
     inkscape:cy="361.82262"
     inkscape:document-units="mm"
     inkscape:current-layer="layer1"
     showgrid="false"
     inkscape:snap-object-midpoints="true"
     inkscape:snap-center="true"
     inkscape:snap-smooth-nodes="false"
     inkscape:snap-intersection-paths="false"
     inkscape:snap-bbox="true"
     inkscape:snap-midpoints="false"
     inkscape:object-paths="false"
     inkscape:snap-bbox-midpoints="false"
     inkscape:snap-bbox-edge-midpoints="false"
     inkscape:bbox-nodes="false"
     inkscape:bbox-paths="false"
     inkscape:object-nodes="true"
     inkscape:snap-grids="true"
     inkscape:window-width="1920"
     inkscape:window-height="1051"
     inkscape:window-x="0"
     inkscape:window-y="23"
     inkscape:window-maximized="0"
     inkscape:pagecheckerboard="false"
     showborder="true"
     borderlayer="false"
     inkscape:showpageshadow="true"
     inkscape:snap-page="true"
     width="297.217mm" />
  <metadata
     id="metadata5">
    <rdf:RDF>
      <cc:Work
         rdf:about="">
        <dc:format>image/svg+xml</dc:format>
        <dc:type
           rdf:resource="http://purl.org/dc/dcmitype/StillImage" />
        <dc:title></dc:title>
      </cc:Work>
    </rdf:RDF>
  </metadata>
  <g
     inkscape:label="Camada 1"
     inkscape:groupmode="layer"
     id="layer1"
     transform="translate(0,-117)">
    <g
       id="g3302">
      <g
         transform="matrix(0.2441182,0,0,0.2441182,346.50233,177.86224)"
         id="g6390">
        <g
           id="g4481"
           style="fill:#343a40;fill-opacity:1"
           transform="matrix(1.4726849,0,0,1.4726849,-12.460662,-14.883364)">
          <path
             d="m -498.87936,74.316791 c 0,23.732774 -19.2398,42.972919 -42.97222,42.972919 -23.73312,0 -42.97292,-19.240145 -42.97292,-42.972919 0,-23.733126 19.2398,-42.972569 42.97292,-42.972569 23.73242,0 42.97222,19.239443 42.97222,42.972569"
             style="fill:#343a40;fill-opacity:1;fill-rule:nonzero;stroke:none;stroke-width:0.03527778"
             id="path3251"
             inkscape:connector-curvature="0" />
          <path
             d="m -527.36758,43.272345 c 0,1.749778 -1.41887,3.16865 -3.169,3.16865 h -22.4155 c -1.74978,0 -3.1683,-1.418872 -3.1683,-3.16865 V 12.348901 c 0,-1.750131 1.41852,-3.1686502 3.1683,-3.1686502 h 22.4155 c 1.75013,0 3.169,1.4185192 3.169,3.1686502 v 30.923444"
             style="fill:#343a40;fill-opacity:1;fill-rule:nonzero;stroke:none;stroke-width:0.03527778"
             id="path3257"
             inkscape:connector-curvature="0" />
          <path
             d="m -522.08685,9.5323231 c 0,1.7501309 -1.41852,3.1686499 -3.16865,3.1686499 h -33.27083 c -1.75013,0 -3.16865,-1.418519 -3.16865,-3.1686499 V 7.0678174 c 0,-1.7497779 1.41852,-3.1686502 3.16865,-3.1686502 h 33.27083 c 1.75013,0 3.16865,1.4188723 3.16865,3.1686502 v 2.4645057"
             style="fill:#343a40;fill-opacity:1;fill-rule:nonzero;stroke:none;stroke-width:0.03527778"
             id="path3259"
             inkscape:connector-curvature="0" />
        </g>
        <path
           inkscape:connector-curvature="0"
           id="path3253"
           style="fill:#ffffff;fill-opacity:1;fill-rule:nonzero;stroke:none;stroke-width:0.05195305"
           d="m -859.53553,121.34573 h 98.94459 c 0,0 -45.36749,63.51521 -98.94459,0" />
        <path
           inkscape:connector-curvature="0"
           id="path3255"
           style="fill:#285dbc;fill-opacity:1;fill-rule:nonzero;stroke:none;stroke-width:0.05195305"
           d="m -852.18989,125.23442 c 0,0 35.25794,48.17659 86.84629,0 0,0 -45.79922,40.85328 -86.84629,0" />
        <path
           inkscape:connector-curvature="0"
           id="path3261"
           style="fill:#ffffff;fill-opacity:1;fill-rule:nonzero;stroke:none;stroke-width:0.05195305"
           d="m -859.53553,121.35924 c 0,0 8.80292,-1.97941 8.80292,-6.27645 0,0 0.50603,6.82455 5.81407,6.82455" />
        <path
           inkscape:connector-curvature="0"
           id="path3263"
           style="fill:#ffffff;fill-opacity:1;fill-rule:nonzero;stroke:none;stroke-width:0.05195305"
           d="m -850.94198,121.35924 c 0,0 8.80344,-1.97941 8.80344,-6.27645 0,0 0.50552,6.82455 5.81356,6.82455" />
        <path
           inkscape:connector-curvature="0"
           id="path3265"
           style="fill:#ffffff;fill-opacity:1;fill-rule:nonzero;stroke:none;stroke-width:0.05195305"
           d="m -842.47519,121.35924 c 0,0 8.80344,-1.97941 8.80344,-6.27645 0,0 0.50552,6.82455 5.81356,6.82455" />
        <path
           inkscape:connector-curvature="0"
           id="path3267"
           style="fill:#ffffff;fill-opacity:1;fill-rule:nonzero;stroke:none;stroke-width:0.05195305"
           d="m -834.26037,121.35924 c 0,0 8.80345,-1.97941 8.80345,-6.27645 0,0 0.5055,6.82455 5.81303,6.82455" />
        <path
           inkscape:connector-curvature="0"
           id="path3269"
           style="fill:#ffffff;fill-opacity:1;fill-rule:nonzero;stroke:none;stroke-width:0.05195305"
           d="m -825.66734,121.35924 c 0,0 8.80396,-1.97941 8.80396,-6.27645 0,0 0.50552,6.82455 5.81303,6.82455" />
        <path
           inkscape:connector-curvature="0"
           id="path3271"
           style="fill:#ffffff;fill-opacity:1;fill-rule:nonzero;stroke:none;stroke-width:0.05195305"
           d="m -817.20003,121.35924 c 0,0 8.80397,-1.97941 8.80397,-6.27645 0,0 0.50499,6.82455 5.81303,6.82455" />
        <path
           inkscape:connector-curvature="0"
           id="path3273"
           style="fill:#ffffff;fill-opacity:1;fill-rule:nonzero;stroke:none;stroke-width:0.05195305"
           d="m -809.11146,121.35924 c 0,0 8.80345,-1.97941 8.80345,-6.27645 0,0 0.5055,6.82455 5.81302,6.82455" />
        <path
           inkscape:connector-curvature="0"
           id="path3275"
           style="fill:#ffffff;fill-opacity:1;fill-rule:nonzero;stroke:none;stroke-width:0.05195305"
           d="m -800.5179,121.35924 c 0,0 8.80293,-1.97941 8.80293,-6.27645 0,0 0.50653,6.82455 5.81354,6.82455" />
        <path
           inkscape:connector-curvature="0"
           id="path3277"
           style="fill:#ffffff;fill-opacity:1;fill-rule:nonzero;stroke:none;stroke-width:0.05195305"
           d="m -792.0506,121.35924 c 0,0 8.80345,-1.97941 8.80345,-6.27645 0,0 0.5055,6.82455 5.81303,6.82455" />
        <path
           inkscape:connector-curvature="0"
           id="path3279"
           style="fill:#ffffff;fill-opacity:1;fill-rule:nonzero;stroke:none;stroke-width:0.05195305"
           d="m -784.3418,121.35924 c 0,0 8.80345,-1.97941 8.80345,-6.27645 0,0 0.5055,6.82455 5.81354,6.82455" />
        <path
           inkscape:connector-curvature="0"
           id="path3281"
           style="fill:#ffffff;fill-opacity:1;fill-rule:nonzero;stroke:none;stroke-width:0.05195305"
           d="m -775.74877,121.35924 c 0,0 8.80398,-1.97941 8.80398,-6.27645 0,0 0.5055,6.82455 5.81302,6.82455" />
        <path
           inkscape:connector-curvature="0"
           id="path3283"
           style="fill:#ffffff;fill-opacity:1;fill-rule:nonzero;stroke:none;stroke-width:0.05195305"
           d="m -793.86116,64.970431 c 0,3.704773 -3.00341,6.707659 -6.70818,6.707659 -3.70478,0 -6.70765,-3.002886 -6.70765,-6.707659 0,-3.704771 3.00287,-6.708178 6.70765,-6.708178 3.70477,0 6.70818,3.003407 6.70818,6.708178" />
        <path
           inkscape:connector-curvature="0"
           id="path3285"
           style="fill:#285dbc;fill-opacity:1;fill-rule:nonzero;stroke:none;stroke-width:0.05195305"
           d="m -794.8332,62.928676 c 0,0 -0.19483,11.666059 -10.30541,6.221898 0,0 8.36133,2.72234 10.30541,-6.221898" />
        <path
           inkscape:connector-curvature="0"
           id="path3287"
           style="fill:#ffffff;fill-opacity:1;fill-rule:nonzero;stroke:none;stroke-width:0.05195305"
           d="m -814.66576,45.137872 c 0,1.557033 -1.26193,2.819494 -2.81949,2.819494 -1.55651,0 -2.81845,-1.262461 -2.81845,-2.819494 0,-1.556513 1.26194,-2.818972 2.81845,-2.818972 1.55756,0 2.81949,1.262459 2.81949,2.818972" />
        <path
           inkscape:connector-curvature="0"
           id="path3289"
           style="fill:#285dbc;fill-opacity:1;fill-rule:nonzero;stroke:none;stroke-width:0.05195305"
           d="m -815.07411,44.280127 c 0,0 -0.0816,4.90281 -4.33133,2.614798 0,0 3.51411,1.144007 4.33133,-2.614798" />
        <path
           inkscape:connector-curvature="0"
           id="path3291"
           style="fill:#ffffff;fill-opacity:1;fill-rule:nonzero;stroke:none;stroke-width:0.05195305"
           d="m -794.05598,47.276781 c 0,2.738444 -2.21944,4.957879 -4.95788,4.957879 -2.73793,0 -4.95788,-2.219435 -4.95788,-4.957879 0,-2.737926 2.21995,-4.957881 4.95788,-4.957881 2.73844,0 4.95788,2.219955 4.95788,4.957881" />
        <path
           inkscape:connector-curvature="0"
           id="path3293"
           style="fill:#285dbc;fill-opacity:1;fill-rule:nonzero;stroke:none;stroke-width:0.05195305"
           d="m -794.77449,45.768064 c 0,0 -0.14285,8.622648 -7.61633,4.598364 0,0 6.17983,2.012142 7.61633,-4.598364" />
        <path
           inkscape:connector-curvature="0"
           id="path3295"
           style="fill:#ffffff;fill-opacity:1;fill-rule:nonzero;stroke:none;stroke-width:0.05195305"
           d="m -818.55445,11.112259 c 0,0.912816 -0.7398,1.652627 -1.65261,1.652627 -0.91283,0 -1.65212,-0.739811 -1.65212,-1.652627 0,-0.912815 0.73929,-1.6526261 1.65212,-1.6526261 0.91281,0 1.65261,0.7398111 1.65261,1.6526261" />
        <path
           inkscape:connector-curvature="0"
           id="path3297"
           style="fill:#285dbc;fill-opacity:1;fill-rule:nonzero;stroke:none;stroke-width:0.05195305"
           d="m -818.79395,10.609354 c 0,0 -0.0477,2.874043 -2.53894,1.532615 0,0 2.05994,0.670714 2.53894,-1.532615" />
        <g
           aria-label="4"
           style="font-style:normal;font-weight:normal;font-size:217.17973328px;line-height:226.22889709px;font-family:sans-serif;letter-spacing:0px;word-spacing:0px;fill:#343a40;fill-opacity:1;stroke:none;stroke-width:9.04915524"
           id="text4774">
          <path
             d="m -927.41626,16.78569 -51.36204,80.265785 c -0.72952,0.961534 -0.91965,1.485632 0.6586,1.320828 h 48.45606 c 4.68912,-0.175305 4.08957,0.819858 4.12298,-3.762153 V 17.068578 c 0.18908,-3.20372 -0.33153,-2.915265 -1.8756,-0.282888 z m 1.1856,-21.5949694 h 19.22954 c 2.14187,0.059503 2.77547,0.2115971 2.77547,2.9718532 V 96.932477 c -0.0402,1.408516 0.2694,1.45653 1.42952,1.439826 h 19.75431 c 0.94325,0.04086 1.38701,0.47403 1.40371,1.432898 v 15.025559 c -0.0137,1.02783 -0.36535,1.34872 -1.63757,1.35707 h -16.96911 c -4.05974,8.2e-4 -3.7637,-0.19946 -3.98086,4.01381 v 30.75781 c 0.0566,2.08564 -0.31691,2.55328 -2.16126,2.55614 h -15.44977 c -3.85407,0.0486 -3.82902,-0.0613 -3.70398,-6.00517 v -27.21429 c 0.12474,-4.61238 0.53163,-4.14171 -3.90279,-4.1083 h -58.85245 c -8.5675,-0.17155 -8.75235,-0.30458 -8.71894,-8.08057 v -7.28309 c -0.0311,-5.233642 0.89612,-6.879063 4.32515,-11.903798 l 58.63019,-89.31426595 c 3.20959,-4.35977645 3.18017,-4.31515935 7.82884,-4.41538545 z"
             style="font-style:normal;font-variant:normal;font-weight:normal;font-stretch:normal;font-family:Icons;-inkscape-font-specification:Icons;fill:#343a40;fill-opacity:1;stroke-width:9.04915524"
             id="path4780"
             inkscape:connector-curvature="0"
             sodipodi:nodetypes="cccccccccccccccccccccccccccccc" />
        </g>
        <g
           id="g4785"
           style="font-style:normal;font-weight:normal;font-size:217.17973328px;line-height:226.22889709px;font-family:sans-serif;letter-spacing:0px;word-spacing:0px;fill:#343a40;fill-opacity:1;stroke:none;stroke-width:9.04915524"
           aria-label="4"
           transform="translate(257.77976)">
          <path
             sodipodi:nodetypes="cccccccccccccccccccccccccccccc"
             inkscape:connector-curvature="0"
             id="path4783"
             style="font-style:normal;font-variant:normal;font-weight:normal;font-stretch:normal;font-family:Icons;-inkscape-font-specification:Icons;fill:#343a40;fill-opacity:1;stroke-width:9.04915524"
             d="m -927.41626,16.78569 -51.36204,80.265785 c -0.72952,0.961534 -0.91965,1.485632 0.6586,1.320828 h 48.45606 c 4.68912,-0.175305 4.08957,0.819858 4.12298,-3.762153 V 17.068578 c 0.18908,-3.20372 -0.33153,-2.915265 -1.8756,-0.282888 z m 1.1856,-21.5949694 h 19.22954 c 2.14187,0.059503 2.77547,0.2115971 2.77547,2.9718532 V 96.932477 c -0.0402,1.408516 0.2694,1.45653 1.42952,1.439826 h 19.75431 c 0.94325,0.04086 1.38701,0.47403 1.40371,1.432898 v 15.025559 c -0.0137,1.02783 -0.36535,1.34872 -1.63757,1.35707 h -16.96911 c -4.05974,8.2e-4 -3.7637,-0.19946 -3.98086,4.01381 v 30.75781 c 0.0566,2.08564 -0.31691,2.55328 -2.16126,2.55614 h -15.44977 c -3.85407,0.0486 -3.82902,-0.0613 -3.70398,-6.00517 v -27.21429 c 0.12474,-4.61238 0.53163,-4.14171 -3.90279,-4.1083 h -58.85245 c -8.5675,-0.17155 -8.75235,-0.30458 -8.71894,-8.08057 v -7.28309 c -0.0311,-5.233642 0.89612,-6.879063 4.32515,-11.903798 l 58.63019,-89.31426595 c 3.20959,-4.35977645 3.18017,-4.31515935 7.82884,-4.41538545 z" />
        </g>
      </g>
      <text
         id="text6394"
         y="230.85571"
         x="98.207268"
         style="font-style:normal;font-weight:normal;font-size:8.82237053px;line-height:9.18996811px;font-family:sans-serif;letter-spacing:0px;word-spacing:0px;fill:#343a40;fill-opacity:1;stroke:none;stroke-width:0.36759874"
         xml:space="preserve"><tspan
           style="font-style:normal;font-variant:normal;font-weight:normal;font-stretch:normal;font-family:'Noto Nastaliq Urdu';-inkscape-font-specification:'Noto Nastaliq Urdu';fill:#343a40;fill-opacity:1;stroke-width:0.36759874"
           y="230.85571"
           x="98.207268"
           id="tspan6392"
           sodipodi:role="line">Pgina no encontrada</tspan></text>
    </g>
  </g>
</svg>
